<svg width="179" height="35" viewBox="0 0 179 35" fill="none" xmlns="http://www.w3.org/2000/svg">
<g clip-path="url(#clip0_231_23)">
<path d="M11.2502 4.39261C11.9815 5.50979 12.4851 6.76094 12.732 8.07402C12.9789 9.3871 12.9642 10.7362 12.6888 12.0435C11.3861 11.7703 10.15 11.2419 9.05146 10.4888C7.95295 9.73564 7.01358 8.7725 6.28726 7.65463C5.55287 6.53804 5.04606 5.28689 4.79599 3.97319C4.54593 2.65948 4.55755 1.30918 4.8302 0C6.13635 0.271813 7.376 0.799841 8.47779 1.5537C9.57958 2.30756 10.5218 3.27237 11.2502 4.39261Z" fill="#009444"/>
<path d="M4.8302 0L12.6888 12.0435C11.3861 11.7703 10.15 11.2419 9.05146 10.4888C7.95295 9.73564 7.01358 8.7725 6.28726 7.65463C5.55287 6.53804 5.04606 5.28689 4.79599 3.97319C4.54593 2.65948 4.55755 1.30918 4.8302 0Z" fill="#39B54A"/>
<path d="M19.0606 8.47755C18.4431 9.39781 17.6501 10.1866 16.7273 10.7986C15.8045 11.4106 14.7701 11.8337 13.6836 12.0435C13.2593 9.84293 13.7241 7.56352 14.9758 5.70626C16.2275 3.849 18.1636 2.56586 20.3587 2.13885C20.5693 3.22905 20.5631 4.3502 20.3404 5.43797C20.1176 6.52573 19.6827 7.55869 19.0606 8.47755Z" fill="#009444"/>
<path d="M20.3587 2.13885L13.6836 12.0435C13.2593 9.84293 13.7241 7.56352 14.9758 5.70626C16.2275 3.849 18.1636 2.56586 20.3587 2.13885Z" fill="#39B54A"/>
<path d="M24.4081 24.0945L14.2864 34.0807C13.9545 34.411 13.5059 34.5963 13.0382 34.5963C12.5706 34.5963 12.122 34.411 11.7901 34.0807L1.65354 24.0945C1.65354 24.0945 -2.99131 18.5713 3.28812 13.137C3.28812 13.137 8.49878 9.68599 13.0401 15.5539C15.1221 12.859 17.3521 12.1288 19.1531 12.1288C20.4328 12.1346 21.6877 12.4826 22.7884 13.137C29.0678 18.5713 24.4081 24.0945 24.4081 24.0945Z" fill="#DC1F26"/>
<path d="M24.408 24.0945L14.2863 34.0807C13.9542 34.4094 13.5067 34.5944 13.04 34.596V15.5687C15.122 12.8739 17.352 12.1436 19.153 12.1436C20.4327 12.1494 21.6876 12.4975 22.7883 13.1519C29.0677 18.5713 24.408 24.0945 24.408 24.0945Z" fill="#BA1C24"/>
</g>
<path d="M36.9 13.768V29H34.38V9.12H36.508L48.66 24.66V9.14799H51.18V29H48.884L36.9 13.768Z" fill="black"/>
<path d="M61.6109 11.96H63.4349L70.3949 29H68.0909L66.0749 24.008H58.9229L56.9309 29H54.6269L61.6109 11.96ZM65.5949 22.328L62.5229 14.456L59.3549 22.328H65.5949Z" fill="black"/>
<path d="M84.0599 13.88H78.1799V29H76.0199V13.88H70.1399V11.96H84.0599V13.88Z" fill="black"/>
<path d="M94.2661 29.12C92.9061 29.12 91.7621 28.888 90.8341 28.424C89.9061 27.944 89.1621 27.304 88.6021 26.504C88.0421 25.688 87.6341 24.768 87.3781 23.744C87.1221 22.72 86.9941 21.664 86.9941 20.576V11.96H89.1541V20.576C89.1541 21.408 89.2341 22.224 89.3941 23.024C89.5701 23.808 89.8501 24.512 90.2341 25.136C90.6181 25.76 91.1381 26.256 91.7941 26.624C92.4501 26.992 93.2661 27.176 94.2421 27.176C95.2341 27.176 96.0581 26.992 96.7141 26.624C97.3701 26.24 97.8901 25.736 98.2741 25.112C98.6581 24.472 98.9301 23.76 99.0901 22.976C99.2661 22.192 99.3541 21.392 99.3541 20.576V11.96H101.514V20.576C101.514 21.728 101.378 22.824 101.106 23.864C100.85 24.888 100.434 25.792 99.8581 26.576C99.2821 27.36 98.5301 27.984 97.6021 28.448C96.6901 28.896 95.5781 29.12 94.2661 29.12Z" fill="black"/>
<path d="M106.071 29V11.96H113.367C114.119 11.96 114.807 12.12 115.431 12.44C116.055 12.744 116.599 13.16 117.063 13.688C117.527 14.2 117.887 14.784 118.143 15.44C118.399 16.08 118.527 16.736 118.527 17.408C118.527 18.192 118.375 18.936 118.071 19.64C117.783 20.344 117.367 20.944 116.823 21.44C116.295 21.936 115.671 22.28 114.951 22.472L119.079 29H116.631L112.743 22.88H108.231V29H106.071ZM108.231 20.96H113.391C113.983 20.96 114.495 20.8 114.927 20.48C115.375 20.144 115.719 19.704 115.959 19.16C116.215 18.616 116.343 18.032 116.343 17.408C116.343 16.768 116.199 16.184 115.911 15.656C115.623 15.112 115.247 14.68 114.783 14.36C114.319 14.04 113.807 13.88 113.247 13.88H108.231V20.96Z" fill="black"/>
<path d="M134.133 27.08V29H122.565V11.96H133.917V13.88H124.725V19.4H132.717V21.2H124.725V27.08H134.133Z" fill="black"/>
<path d="M144.204 9.12H146.332L154.452 29H151.764L149.412 23.176H141.068L138.744 29H136.056L144.204 9.12ZM148.852 21.216L145.268 12.032L141.572 21.216H148.852Z" fill="black"/>
<path d="M157.605 29V11.96H159.765V29H157.605Z" fill="black"/>
<path d="M164.56 29V11.96H170.464C172.288 11.96 173.808 12.344 175.024 13.112C176.256 13.864 177.176 14.888 177.784 16.184C178.392 17.464 178.696 18.888 178.696 20.456C178.696 22.184 178.36 23.688 177.688 24.968C177.016 26.248 176.064 27.24 174.832 27.944C173.6 28.648 172.144 29 170.464 29H164.56ZM176.512 20.456C176.512 19.176 176.272 18.04 175.792 17.048C175.328 16.056 174.648 15.28 173.752 14.72C172.856 14.16 171.76 13.88 170.464 13.88H166.72V27.08H170.464C171.776 27.08 172.88 26.792 173.776 26.216C174.672 25.624 175.352 24.832 175.816 23.84C176.28 22.832 176.512 21.704 176.512 20.456Z" fill="black"/>
<defs>
<clipPath id="clip0_231_23">
<rect width="27" height="35" fill="white"/>
</clipPath>
</defs>
</svg>
