<svg width="40" height="51" viewBox="0 0 40 51" fill="none" xmlns="http://www.w3.org/2000/svg">
<g clip-path="url(#clip0_63_9)">
<path d="M16.4066 6.36928C17.4731 7.9892 18.2075 9.80336 18.5675 11.7073C18.9276 13.6113 18.9062 15.5675 18.5045 17.4631C16.6048 17.0669 14.8021 16.3008 13.2001 15.2088C11.5981 14.1167 10.2282 12.7201 9.16902 11.0992C8.09803 9.48016 7.35894 7.66599 6.99425 5.76113C6.62958 3.85625 6.64652 1.89831 7.04414 0C8.94894 0.394129 10.7568 1.15977 12.3635 2.25287C13.9703 3.34596 15.3443 4.74494 16.4066 6.36928Z" fill="#009444"/>
<path d="M7.04414 0L18.5045 17.4631C16.6048 17.0669 14.8021 16.3008 13.2001 15.2088C11.5981 14.1167 10.2282 12.7201 9.16902 11.0992C8.09803 9.48016 7.35894 7.66599 6.99425 5.76113C6.62958 3.85625 6.64652 1.89831 7.04414 0Z" fill="#39B54A"/>
<path d="M27.7967 12.2924C26.8962 13.6268 25.7397 14.7706 24.394 15.658C23.0482 16.5454 21.5397 17.1589 19.9552 17.4631C19.3365 14.2722 20.0143 10.9671 21.8397 8.27406C23.6651 5.58104 26.4886 3.7205 29.6897 3.10133C29.9969 4.68211 29.9878 6.30778 29.6631 7.88504C29.3381 9.4623 28.7039 10.9601 27.7967 12.2924Z" fill="#009444"/>
<path d="M29.6897 3.10133L19.9552 17.4631C19.3365 14.2722 20.0143 10.9671 21.8397 8.27406C23.6651 5.58104 26.4886 3.7205 29.6897 3.10133Z" fill="#39B54A"/>
<path d="M35.5952 34.937L20.8344 49.417C20.3504 49.896 19.6962 50.1646 19.0141 50.1646C18.3322 50.1646 17.678 49.896 17.1939 49.417L2.41147 34.937C2.41147 34.937 -4.36227 26.9284 4.79523 19.0487C4.79523 19.0487 12.3941 14.0447 19.0169 22.5532C22.0531 18.6456 25.3052 17.5868 27.9317 17.5868C29.7979 17.5952 31.6279 18.0998 33.2331 19.0487C42.3906 26.9284 35.5952 34.937 35.5952 34.937Z" fill="#DC1F26"/>
<path d="M35.5952 34.937L20.8344 49.417C20.3501 49.8936 19.6974 50.1619 19.0168 50.1642V22.5746C22.0531 18.6671 25.3052 17.6082 27.9316 17.6082C29.7979 17.6166 31.6279 18.1214 33.2331 19.0702C42.3906 26.9284 35.5952 34.937 35.5952 34.937Z" fill="#BA1C24"/>
</g>
<defs>
<clipPath id="clip0_63_9">
<rect width="39.375" height="50.75" fill="white"/>
</clipPath>
</defs>
</svg>
