<svg width="197" height="35" viewBox="0 0 197 35" fill="none" xmlns="http://www.w3.org/2000/svg">
<g clip-path="url(#clip0_4301_29)">
<path d="M11.2502 4.39261C11.9815 5.50979 12.4851 6.76094 12.732 8.07402C12.9789 9.3871 12.9642 10.7362 12.6888 12.0435C11.3861 11.7703 10.15 11.2419 9.05146 10.4888C7.95295 9.73564 7.01358 8.7725 6.28726 7.65463C5.55287 6.53804 5.04606 5.28689 4.79599 3.97319C4.54593 2.65948 4.55755 1.30918 4.8302 0C6.13635 0.271813 7.376 0.799841 8.47779 1.5537C9.57958 2.30756 10.5218 3.27237 11.2502 4.39261Z" fill="#009444"/>
<path d="M4.8302 0L12.6888 12.0435C11.3861 11.7703 10.15 11.2419 9.05146 10.4888C7.95295 9.73564 7.01358 8.7725 6.28726 7.65463C5.55287 6.53804 5.04606 5.28689 4.79599 3.97319C4.54593 2.65948 4.55755 1.30918 4.8302 0Z" fill="#39B54A"/>
<path d="M19.0606 8.47755C18.4431 9.39781 17.6501 10.1866 16.7273 10.7986C15.8045 11.4106 14.7701 11.8337 13.6836 12.0435C13.2593 9.84293 13.7241 7.56352 14.9758 5.70626C16.2275 3.849 18.1636 2.56586 20.3587 2.13885C20.5693 3.22905 20.5631 4.3502 20.3404 5.43797C20.1176 6.52573 19.6827 7.55869 19.0606 8.47755Z" fill="#009444"/>
<path d="M20.3587 2.13885L13.6836 12.0435C13.2593 9.84293 13.7241 7.56352 14.9758 5.70626C16.2275 3.849 18.1636 2.56586 20.3587 2.13885Z" fill="#39B54A"/>
<path d="M24.4082 24.0945L14.2865 34.0807C13.9546 34.411 13.506 34.5963 13.0383 34.5963C12.5707 34.5963 12.1221 34.411 11.7902 34.0807L1.65366 24.0945C1.65366 24.0945 -2.99119 18.5713 3.28824 13.137C3.28824 13.137 8.4989 9.68599 13.0402 15.5539C15.1222 12.859 17.3522 12.1288 19.1532 12.1288C20.4329 12.1346 21.6878 12.4826 22.7885 13.137C29.0679 18.5713 24.4082 24.0945 24.4082 24.0945Z" fill="#DC1F26"/>
<path d="M24.408 24.0945L14.2863 34.0807C13.9542 34.4094 13.5067 34.5944 13.04 34.596V15.5687C15.122 12.8739 17.352 12.1436 19.153 12.1436C20.4327 12.1494 21.6876 12.4975 22.7883 13.1519C29.0677 18.5713 24.408 24.0945 24.408 24.0945Z" fill="#BA1C24"/>
</g>
<path d="M180.121 31.1066V12.1581H187.007C189.07 12.1581 190.796 12.5851 192.184 13.4391C193.572 14.2753 194.613 15.414 195.307 16.8552C196 18.2785 196.347 19.862 196.347 21.6056C196.347 23.5272 195.965 25.1996 195.2 26.623C194.435 28.0463 193.349 29.1494 191.944 29.9323C190.556 30.7151 188.91 31.1066 187.007 31.1066H180.121ZM192.638 21.6056C192.638 20.378 192.415 19.3016 191.971 18.3764C191.526 17.4334 190.885 16.7039 190.049 16.188C189.213 15.6542 188.199 15.3873 187.007 15.3873H183.804V27.8773H187.007C188.216 27.8773 189.239 27.6104 190.076 27.0767C190.912 26.5251 191.544 25.7779 191.971 24.8349C192.415 23.8741 192.638 22.7977 192.638 21.6056Z" fill="#1B1B1B"/>
<path d="M171.684 31.1066V12.1581H175.367V31.1066H171.684Z" fill="#1B1B1B"/>
<path d="M156.169 9H160.528L168.655 31.1066H164.234L162.179 25.5955H154.457L152.433 31.1066H148.012L156.169 9ZM161.4 22.5753L158.349 13.4524L155.173 22.5753H161.4Z" fill="#1B1B1B"/>
<path d="M146.159 27.8773V31.1066H133.002V12.1581H145.919V15.3873H136.685V19.951H144.665V22.94H136.685V27.8773H146.159Z" fill="#1B1B1B"/>
<path d="M114.452 31.1066V12.1581H122.832C123.704 12.1581 124.505 12.336 125.234 12.6918C125.982 13.0477 126.622 13.5281 127.156 14.133C127.707 14.7379 128.126 15.414 128.41 16.1613C128.713 16.9085 128.864 17.6736 128.864 18.4564C128.864 19.2571 128.722 20.031 128.437 20.7783C128.17 21.5078 127.779 22.1483 127.263 22.6998C126.747 23.2514 126.142 23.6784 125.448 23.9809L129.771 31.1066H125.715L121.818 24.7548H118.135V31.1066H114.452ZM118.135 21.5256H122.752C123.215 21.5256 123.624 21.3921 123.98 21.1252C124.336 20.8406 124.621 20.4669 124.834 20.0043C125.048 19.5418 125.154 19.0258 125.154 18.4564C125.154 17.8515 125.03 17.3267 124.781 16.8819C124.532 16.4193 124.211 16.0545 123.82 15.7876C123.446 15.5208 123.037 15.3873 122.592 15.3873H118.135V21.5256Z" fill="#1B1B1B"/>
<path d="M101.669 31.24C100.157 31.24 98.8666 30.9909 97.7991 30.4927C96.7494 29.9768 95.8954 29.274 95.2371 28.3844C94.5965 27.4948 94.1251 26.4895 93.8226 25.3686C93.5201 24.2299 93.3689 23.0468 93.3689 21.8191V12.1581H97.0518V21.8191C97.0518 22.602 97.123 23.367 97.2653 24.1143C97.4255 24.8438 97.6835 25.5021 98.0393 26.0892C98.3951 26.6763 98.8666 27.1389 99.4538 27.477C100.041 27.815 100.77 27.9841 101.642 27.9841C102.532 27.9841 103.27 27.815 103.857 27.477C104.462 27.1211 104.934 26.6497 105.272 26.0625C105.628 25.4754 105.886 24.8171 106.046 24.0876C106.206 23.3403 106.286 22.5842 106.286 21.8191V12.1581H109.942V21.8191C109.942 23.1179 109.782 24.3367 109.462 25.4754C109.159 26.6141 108.67 27.6193 107.994 28.4911C107.336 29.3451 106.482 30.0212 105.432 30.5194C104.382 30.9998 103.128 31.24 101.669 31.24Z" fill="#1B1B1B"/>
<path d="M90.4831 15.3873H84.4249V31.1066H80.7686V15.3873H74.7104V12.1581H90.4831V15.3873Z" fill="#1B1B1B"/>
<path d="M64.503 12.1581H68.2393L75.2049 31.1066H71.4152L69.6538 26.3828H63.0352L61.3004 31.1066H57.5107L64.503 12.1581ZM68.9866 23.794L66.3712 15.9745L63.649 23.794H68.9866Z" fill="#1B1B1B"/>
<path d="M39.2968 16.9085V31.1066H35V9H38.425L49.8519 23.5716V9.03114H54.1486V31.1066H50.568L39.2968 16.9085Z" fill="#1B1B1B"/>
<defs>
<clipPath id="clip0_4301_29">
<rect width="27" height="35" fill="white"/>
</clipPath>
</defs>
</svg>
